<svg width="72px" height="72px" viewBox="0 0 72 72" version="1.1" xmlns="http://www.w3.org/2000/svg" xmlns:xlink="http://www.w3.org/1999/xlink">
    <g id="Page-1" stroke="none" stroke-width="1" fill="none" fill-rule="evenodd">
        <g id="对账提现优化" transform="translate(-2126.000000, -1398.000000)">
            <g id="Group-4" transform="translate(2086.000000, 1073.000000)">
                <g id="Group-2" transform="translate(40.000000, 289.000000)">
                    <g id="Group" transform="translate(0.000000, 33.000000)">
                        <g id="Icon_商家自提" transform="translate(0.000000, 3.000000)">
                            <circle id="Oval-5-Copy-3" fill-opacity="0.5" fill="#4A4C5B" cx="36" cy="36" r="36"></circle>
                            <g id="提现-(3)" transform="translate(20.000000, 20.000000)" fill="#FFFFFF" fill-rule="nonzero">
                                <path d="M3.21001451,6.19793393 C3.1777885,6.39095166 3.2484421,6.54504857 3.3376266,6.69213605 C3.44220426,6.86456817 3.58786736,6.99926001 3.75265192,7.11273906 C4.09853713,7.35098608 4.48207472,7.50334909 4.88916354,7.59849297 C4.95863588,7.61472536 5.03172585,7.61819319 5.10344996,7.62121831 C5.19348348,7.62501818 5.2838123,7.62228818 5.37403038,7.62228818 C13.0143283,7.62228818 20.6546263,7.62262022 28.2949243,7.62147655 C28.7215406,7.62140275 29.1425461,7.65467916 29.5460542,7.80213552 C30.9003959,8.29700168 31.7031302,9.2582536 31.9507131,10.6757829 C31.9922415,10.913661 31.9974464,11.1601349 31.9975941,11.4026245 C32.000215,15.919136 31.9995136,20.4356106 31.9995136,24.9521222 C31.9995136,26.0880197 31.998074,27.2238803 31.9999935,28.3597778 C32.001064,28.9847982 31.8702035,29.5781284 31.5658097,30.1253071 C30.9844494,31.1703771 30.0961482,31.7849202 28.9155981,31.9709285 C28.7298094,32.0002205 28.5377822,31.9968265 28.3486343,31.9969372 C25.849992,31.9984866 23.3513128,31.9979702 20.8526705,31.9979702 C15.115701,31.9979702 9.37869456,31.9967896 3.64172502,31.9999992 C3.11979643,32.0002943 2.61887196,31.917915 2.14090805,31.7083329 C0.817020422,31.1277671 0.0109638818,29.8237538 0.0013662352,28.4907436 C0.000960193268,28.4366603 0.00118164773,28.3825769 0.00118164773,28.3284936 C0.00118164773,21.558264 0.00177227713,14.7880344 3.88929645e-07,8.01780479 C-0.000147259402,7.51928633 0.0417133333,7.02729773 0.177298872,6.54667179 C0.475712527,5.48894793 1.10579949,4.7092404 2.11680314,4.25229899 C2.46553075,4.09469736 2.83840018,4.03057948 3.21208169,3.96708875 C4.10049357,3.81616451 4.98838866,3.66210452 5.8763576,3.5084872 C6.65775549,3.37331576 7.43893187,3.23696377 8.22025592,3.10131274 C9.11697348,2.94562949 10.013728,2.78998312 10.9104825,2.63459498 C11.7806219,2.48381834 12.650872,2.33355814 13.5210114,2.18267083 C14.4266253,2.02565947 15.3320546,1.86743069 16.2378161,1.71108337 C17.2235336,1.54093854 18.209694,1.37330233 19.1953377,1.20289927 C20.1809813,1.03249621 21.1661451,0.859363141 22.1517519,0.688628044 C23.0396839,0.534789368 23.9278373,0.382352592 24.8159539,0.22969446 C25.188971,0.165576575 25.5606223,0.0904280346 25.9356696,0.0420260261 C26.4394365,-0.0229772854 26.9440524,-0.0253383371 27.4366712,0.127282914 C27.988168,0.29816557 28.4104654,0.62668677 28.6652097,1.15339051 C28.7525115,1.33386504 28.8012751,1.52086941 28.7986173,1.72591386 C28.7914929,2.27574877 28.7962179,2.82569433 28.7962179,3.37560305 L28.7962179,3.63192703 C28.7300309,3.65214373 28.6739214,3.67977565 28.615634,3.68549389 C27.808101,3.76481118 27.000088,3.83959081 26.192518,3.91872362 C25.5554543,3.98114449 24.9189812,4.04976319 24.2819175,4.11244229 C23.6448538,4.1751214 23.0072364,4.23234053 22.3701357,4.29468764 C21.733072,4.35703471 21.0963774,4.42366124 20.4593876,4.48678306 C20.0107704,4.53120076 19.5617841,4.57200303 19.11313,4.61601493 C18.6465356,4.66176074 18.1802366,4.71001515 17.7136791,4.75609299 C17.2739952,4.79951458 16.8341635,4.84105472 16.3944796,4.8841812 C15.9189151,4.93081239 15.4434983,4.97858725 14.9679338,5.02536597 C14.5282498,5.06860312 14.088492,5.11088109 13.6488081,5.15400757 C13.1732436,5.20063876 12.6977529,5.24786023 12.2221884,5.2946021 C11.7825045,5.33780237 11.3427836,5.3806337 10.9031366,5.42383397 C10.418602,5.47142435 9.93414116,5.51949433 9.44956962,5.56697403 C9.00988566,5.61006363 8.57012785,5.65237848 8.13044389,5.69550495 C7.6548794,5.74213615 7.17938875,5.78943141 6.7038243,5.83621012 C6.26414034,5.87944728 5.82445638,5.92224172 5.38477238,5.96555268 C4.90028284,6.01332118 4.41580972,6.06125589 3.93135312,6.1093568 C3.73397338,6.12894635 3.5365198,6.14805626 3.33936155,6.16949038 C3.29639354,6.17413876 3.25449601,6.18789938 3.21001451,6.19793393 Z M22.844876,18.1465801 C22.844876,18.0436735 22.7497161,18.0436735 22.7497161,17.940767 C22.7497161,17.940767 22.7497161,17.8378213 22.6545925,17.8378213 L18.7535099,13.3087979 C18.5632627,13.1029849 18.2777832,13 18.0874997,13 C17.8020564,13 17.611773,13.1029457 17.4214533,13.3087979 C17.0408864,13.7205416 17.0408864,14.441044 17.4214533,14.8527876 L19.7049997,17.5290234 L10.9514535,17.5290234 C10.3806031,17.5290234 10,18.0436735 10,18.6612694 C10,19.2788653 10.475763,19.7935155 10.9514897,19.7935155 L19.7049997,19.7935155 L17.4214533,22.469712 C17.0408864,22.8814557 17.0408864,23.601958 17.4214533,24.0137017 C17.611773,24.2195539 17.8972163,24.3224996 18.0874997,24.3224996 C18.372943,24.3224996 18.5632265,24.2195539 18.7535462,24.0137017 L22.65452,19.4847175 L22.7496799,19.3817718 C22.7496799,19.3817718 22.8448397,19.2788653 22.8448397,19.1759196 C22.9399996,19.0729739 22.9399996,18.8671216 22.9399996,18.7641759 C22.9399996,18.3524715 22.8448397,18.2495258 22.8448397,18.1465801 L22.844876,18.1465801 Z" id="Shape"></path>
                            </g>
                        </g>
                    </g>
                </g>
            </g>
        </g>
    </g>
</svg>